<svg width="55" height="12" viewBox="0 0 55 12" fill="none" xmlns="http://www.w3.org/2000/svg">
<path d="M0.602 6.114C0.602 5.162 0.816667 4.308 1.246 3.552C1.67533 2.78667 2.25867 2.18933 2.996 1.76C3.74267 1.33067 4.56867 1.116 5.474 1.116C6.538 1.116 7.46667 1.37267 8.26 1.886C9.05333 2.39933 9.632 3.12733 9.996 4.07H8.47C8.19933 3.482 7.80733 3.02933 7.294 2.712C6.79 2.39467 6.18333 2.236 5.474 2.236C4.79267 2.236 4.18133 2.39467 3.64 2.712C3.09867 3.02933 2.674 3.482 2.366 4.07C2.058 4.64867 1.904 5.33 1.904 6.114C1.904 6.88867 2.058 7.57 2.366 8.158C2.674 8.73667 3.09867 9.18467 3.64 9.502C4.18133 9.81933 4.79267 9.978 5.474 9.978C6.18333 9.978 6.79 9.824 7.294 9.516C7.80733 9.19867 8.19933 8.746 8.47 8.158H9.996C9.632 9.09133 9.05333 9.81467 8.26 10.328C7.46667 10.832 6.538 11.084 5.474 11.084C4.56867 11.084 3.74267 10.874 2.996 10.454C2.25867 10.0247 1.67533 9.432 1.246 8.676C0.816667 7.92 0.602 7.066 0.602 6.114ZM11.4165 7.136C11.4165 6.352 11.5751 5.666 11.8925 5.078C12.2098 4.48067 12.6438 4.01867 13.1945 3.692C13.7545 3.36533 14.3751 3.202 15.0565 3.202C15.7285 3.202 16.3118 3.34667 16.8065 3.636C17.3011 3.92533 17.6698 4.28933 17.9125 4.728V3.328H19.2005V11H17.9125V9.572C17.6605 10.02 17.2825 10.3933 16.7785 10.692C16.2838 10.9813 15.7051 11.126 15.0425 11.126C14.3611 11.126 13.7451 10.958 13.1945 10.622C12.6438 10.286 12.2098 9.81467 11.8925 9.208C11.5751 8.60133 11.4165 7.91067 11.4165 7.136ZM17.9125 7.15C17.9125 6.57133 17.7958 6.06733 17.5625 5.638C17.3291 5.20867 17.0118 4.882 16.6105 4.658C16.2185 4.42467 15.7845 4.308 15.3085 4.308C14.8325 4.308 14.3985 4.42 14.0065 4.644C13.6145 4.868 13.3018 5.19467 13.0685 5.624C12.8351 6.05333 12.7185 6.55733 12.7185 7.136C12.7185 7.724 12.8351 8.23733 13.0685 8.676C13.3018 9.10533 13.6145 9.43667 14.0065 9.67C14.3985 9.894 14.8325 10.006 15.3085 10.006C15.7845 10.006 16.2185 9.894 16.6105 9.67C17.0118 9.43667 17.3291 9.10533 17.5625 8.676C17.7958 8.23733 17.9125 7.72867 17.9125 7.15ZM28.3534 6.87C28.3534 7.11267 28.3394 7.36933 28.3114 7.64H22.1794C22.2261 8.396 22.4827 8.98867 22.9494 9.418C23.4254 9.838 23.9994 10.048 24.6714 10.048C25.2221 10.048 25.6794 9.922 26.0434 9.67C26.4167 9.40867 26.6781 9.06333 26.8274 8.634H28.1994C27.9941 9.37133 27.5834 9.97333 26.9674 10.44C26.3514 10.8973 25.5861 11.126 24.6714 11.126C23.9434 11.126 23.2901 10.9627 22.7114 10.636C22.1421 10.3093 21.6941 9.84733 21.3674 9.25C21.0407 8.64333 20.8774 7.94333 20.8774 7.15C20.8774 6.35667 21.0361 5.66133 21.3534 5.064C21.6707 4.46667 22.1141 4.00933 22.6834 3.692C23.2621 3.36533 23.9247 3.202 24.6714 3.202C25.3994 3.202 26.0434 3.36067 26.6034 3.678C27.1634 3.99533 27.5927 4.434 27.8914 4.994C28.1994 5.54467 28.3534 6.17 28.3534 6.87ZM27.0374 6.604C27.0374 6.11867 26.9301 5.70333 26.7154 5.358C26.5007 5.00333 26.2067 4.73733 25.8334 4.56C25.4694 4.37333 25.0634 4.28 24.6154 4.28C23.9714 4.28 23.4207 4.48533 22.9634 4.896C22.5154 5.30667 22.2587 5.876 22.1934 6.604H27.0374ZM31.309 0.64V11H30.035V0.64H31.309ZM40.2843 3.328V11H39.0103V9.866C38.7677 10.258 38.427 10.566 37.9883 10.79C37.559 11.0047 37.083 11.112 36.5603 11.112C35.963 11.112 35.4263 10.9907 34.9503 10.748C34.4743 10.496 34.0963 10.1227 33.8163 9.628C33.5457 9.13333 33.4103 8.53133 33.4103 7.822V3.328H34.6703V7.654C34.6703 8.41 34.8617 8.99333 35.2443 9.404C35.627 9.80533 36.1497 10.006 36.8123 10.006C37.4937 10.006 38.0303 9.796 38.4223 9.376C38.8143 8.956 39.0103 8.34467 39.0103 7.542V3.328H40.2843ZM51.6614 3.188C52.2588 3.188 52.7908 3.314 53.2574 3.566C53.7241 3.80867 54.0928 4.17733 54.3634 4.672C54.6341 5.16667 54.7694 5.76867 54.7694 6.478V11H53.5094V6.66C53.5094 5.89467 53.3181 5.31133 52.9354 4.91C52.5621 4.49933 52.0534 4.294 51.4094 4.294C50.7468 4.294 50.2194 4.50867 49.8274 4.938C49.4354 5.358 49.2394 5.96933 49.2394 6.772V11H47.9794V6.66C47.9794 5.89467 47.7881 5.31133 47.4054 4.91C47.0321 4.49933 46.5234 4.294 45.8794 4.294C45.2168 4.294 44.6894 4.50867 44.2974 4.938C43.9054 5.358 43.7094 5.96933 43.7094 6.772V11H42.4354V3.328H43.7094V4.434C43.9614 4.03267 44.2974 3.72467 44.7174 3.51C45.1468 3.29533 45.6181 3.188 46.1314 3.188C46.7754 3.188 47.3448 3.33267 47.8394 3.622C48.3341 3.91133 48.7028 4.336 48.9454 4.896C49.1601 4.35467 49.5148 3.93467 50.0094 3.636C50.5041 3.33733 51.0548 3.188 51.6614 3.188Z" fill="#474646"/>
</svg>
